<?xml version="1.0" encoding="UTF-8"?>
<svg xmlns="http://www.w3.org/2000/svg" xmlns:xlink="http://www.w3.org/1999/xlink" width="1410.0000381469727" height="883.9999618530273"><defs><style type="text/css"><![CDATA[@import url("https://atlas.mindmup.com/_resources/22/fonts.css")]]></style></defs><rect width="100%" height="100%" fill="#FFFFFF"/><g transform="translate(899,575.9999618530273)" style="fill:none;"><g transform="translate(-128,-502.99996185302734)"><path d="M74,407Q74,-21 198,15" stroke="#707070" stroke-width="1" stroke-linecap="round"/></g><g transform="translate(70.00003814697266,-545.9999618530273)"><path d="M21,58Q21,-1.5 61,24" stroke="#707070" stroke-width="1" stroke-linecap="round"/></g><g transform="translate(70.00003814697266,-502.99996185302734)"><path d="M21,15Q21,74.5 61,49" stroke="#707070" stroke-width="1" stroke-linecap="round"/></g><g transform="translate(-128,-143.99996185302734)"><path d="M74,48Q74,-9.75 186,15" stroke="#707070" stroke-width="1" stroke-linecap="round"/></g><g transform="translate(58.000038146972656,-414.9895782470703)"><path d="M34,286Q34,-12 87,24" stroke="#707070" stroke-width="1" stroke-linecap="round"/></g><g transform="translate(58.000038146972656,-330.9583396911621)"><path d="M34,202Q34,-12 89,24" stroke="#707070" stroke-width="1" stroke-linecap="round"/></g><g transform="translate(58.000038146972656,-233.99998474121094)"><path d="M34,105Q34,-21 94,15" stroke="#707070" stroke-width="1" stroke-linecap="round"/></g><g transform="translate(58.000038146972656,-165.99998474121094)"><path d="M57,37Q57,15 96,15" stroke="#707070" stroke-width="1" stroke-linecap="round"/></g><g transform="translate(154.00003814697266,-183.99998474121094)"><path d="M107,33L137,33" stroke="#707070" stroke-width="1" stroke-linecap="round"/></g><g transform="translate(58.000038146972656,-143.99996185302734)"><path d="M34,15Q34,147 98,111" stroke="#707070" stroke-width="1" stroke-linecap="round"/></g><g transform="translate(156.00005340576172,-83.99999618530273)"><path d="M31,51Q31,3.75 94,24" stroke="#707070" stroke-width="1" stroke-linecap="round"/></g><g transform="translate(156.00005340576172,-47.99998474121094)"><path d="M31,15Q31,78 97,51" stroke="#707070" stroke-width="1" stroke-linecap="round"/></g><g transform="translate(58.000038146972656,-143.99996185302734)"><path d="M34,15Q34,335 87,299" stroke="#707070" stroke-width="1" stroke-linecap="round"/></g><g transform="translate(145.00003814697266,79.00001525878906)"><path d="M79,76Q79,-15 178,24" stroke="#707070" stroke-width="1" stroke-linecap="round"/></g><g transform="translate(145.00003814697266,122.00001525878906)"><path d="M79,33Q79,138 178,93" stroke="#707070" stroke-width="1" stroke-linecap="round"/></g><g transform="translate(-208,-111)"><path d="M90,15L59,15" stroke="#707070" stroke-width="1" stroke-linecap="round"/></g><g transform="translate(-691,-111)"><path d="M513,15Q513,119 463,83" stroke="#707070" stroke-width="1" stroke-linecap="round"/></g><g transform="translate(-869,-110)"><path d="M188,82Q188,48 158,48" stroke="#707070" stroke-width="1" stroke-linecap="round"/></g><g transform="translate(-869,-110)"><path d="M188,82Q188,125 158,125" stroke="#707070" stroke-width="1" stroke-linecap="round"/></g><g transform="translate(-386,-111)"><path d="M208,15Q208,263 158,227" stroke="#707070" stroke-width="1" stroke-linecap="round"/></g><g transform="translate(-564,74)"><path d="M188,42L158,42" stroke="#707070" stroke-width="1" stroke-linecap="round"/></g><g transform="translate(-300,-350)"><path d="M122,254Q122,-21 72,15" stroke="#707070" stroke-width="1" stroke-linecap="round"/></g><g transform="translate(-696,-539)"><path d="M432,204Q432,78 376,114" stroke="#707070" stroke-width="1" stroke-linecap="round"/></g><g transform="translate(-783,-350)"><path d="M519,15Q519,175 463,139" stroke="#707070" stroke-width="1" stroke-linecap="round"/></g><g transform="translate(-695,92)"><path d="M131,24L79,120" stroke="#707070" stroke-width="1" stroke-linecap="square"/><path d="M89,111L79,120L81,106Z" fill="#707070" stroke="#707070" stroke-width="1"/></g><g transform="translate(145.00003814697266,-414.9895782470703)"><path d="M79,48L81,84" stroke-dasharray="4, 4" stroke="#707070" stroke-width="1"/><path d="M85,71L81,84L75,71Z" fill="#707070" stroke="#707070" stroke-width="1"/><path d="M75,61L79,48L85,61Z" fill="#707070" stroke="#707070" stroke-width="1"/></g><g transform="translate(145.00003814697266,-414.9895782470703)"><path d="M79,48L42,367" stroke="#707070" stroke-width="1" stroke-linecap="square"/><path d="M48,354L42,367L39,353Z" fill="#707070" stroke="#707070" stroke-width="1"/></g><g transform="translate(147.00005340576172,-330.9583396911621)"><path d="M79,48L40,283" stroke="#707070" stroke-width="1" stroke-linecap="square"/><path d="M47,271L40,283L37,269Z" fill="#707070" stroke="#707070" stroke-width="1"/></g><g transform="translate(-49,-333.99996185302734)"><text font-family="NotoSans, 'Helvetica Neue', Roboto, Helvetica, Arial, sans-serif" font-size="12" font-weight="normal" lengthAdjust="spacing" text-anchor="left" y="12" style="fill:#4F4F4F;">on</text></g><g transform="translate(-695,152)"><rect x="0" y="2" width="391" height="12" fill="#FFFFFF" stroke="#FFFFFF"/><text font-family="NotoSans, 'Helvetica Neue', Roboto, Helvetica, Arial, sans-serif" font-size="12" font-weight="normal" lengthAdjust="spacing" text-anchor="left" y="12" style="fill:#4F4F4F;">Whose spectral signature is modelled as linear combination of that of</text></g><g transform="translate(201.00003814697266,-360.9895782470703)"><rect x="0" y="2" width="48" height="12" fill="#FFFFFF" stroke="#FFFFFF"/><text font-family="NotoSans, 'Helvetica Neue', Roboto, Helvetica, Arial, sans-serif" font-size="12" font-weight="normal" lengthAdjust="spacing" text-anchor="left" y="12" style="fill:#4F4F4F;">Tradeoff</text></g><g transform="translate(-128,-111)"><rect x="0" y="0" width="147" height="30" border="1" rx="10" ry="10" style="fill:#22AAE0;stroke:#707070;stroke-width:1px;"/><text font-family="NotoSans, 'Helvetica Neue', Roboto, Helvetica, Arial, sans-serif" font-size="12" font-weight="bold" lengthAdjust="spacingAndGlyphs" style="fill:#4F4F4F;"><tspan y="18" x="74" text-anchor="middle" textLength="135">Classification (Week 7)</tspan></text></g><g transform="translate(-208,-111)"><rect x="0" y="0" width="59" height="30" border="1" rx="10" ry="10" style="fill:#E0E0E0;stroke:#707070;stroke-width:1px;"/><text font-family="NotoSans, 'Helvetica Neue', Roboto, Helvetica, Arial, sans-serif" font-size="12" font-weight="bold" lengthAdjust="spacingAndGlyphs" style="fill:#4F4F4F;"><tspan y="18" x="30" text-anchor="middle" textLength="47">Method</tspan></text></g><g transform="translate(-300,-350)"><rect x="0" y="0" width="72" height="30" border="1" rx="10" ry="10" style="fill:#E0E0E0;stroke:#707070;stroke-width:1px;"/><text font-family="NotoSans, 'Helvetica Neue', Roboto, Helvetica, Arial, sans-serif" font-size="12" font-weight="bold" lengthAdjust="spacingAndGlyphs" style="fill:#4F4F4F;"><tspan y="18" x="36" text-anchor="middle" textLength="60">Pixel-wise</tspan></text></g><g transform="translate(-696,-539)"><rect x="0" y="0" width="376" height="227" border="1" rx="10" ry="10" style="fill:#E0E0E0;stroke:#707070;stroke-width:1px;"/><image xlink:href="image1.png" x="6" y="6" width="213" height="215"/><text font-family="NotoSans, 'Helvetica Neue', Roboto, Helvetica, Arial, sans-serif" font-size="12" font-weight="bold" lengthAdjust="spacingAndGlyphs" style="fill:#4F4F4F;"><tspan y="108" x="297" text-anchor="middle" textLength="83">Unsupervised</tspan><tspan y="126" x="297" text-anchor="middle" textLength="81">Classification</tspan></text></g><g transform="translate(-783,-292)"><rect x="0" y="0" width="463" height="162" border="1" rx="10" ry="10" style="fill:#E0E0E0;stroke:#707070;stroke-width:1px;"/><image xlink:href="image2.png" x="6" y="6" width="300" height="150"/><text font-family="NotoSans, 'Helvetica Neue', Roboto, Helvetica, Arial, sans-serif" font-size="12" font-weight="bold" lengthAdjust="spacingAndGlyphs" style="fill:#4F4F4F;"><tspan y="75" x="384" text-anchor="middle" textLength="66">Supervised</tspan><tspan y="93" x="384" text-anchor="middle" textLength="81">Classification</tspan></text></g><g transform="translate(-691,-110)"><rect x="0" y="0" width="463" height="164" border="1" rx="10" ry="10" style="fill:#E0E0E0;stroke:#707070;stroke-width:1px;"/><image xlink:href="image3.png" x="6" y="6" width="300" height="152"/><text font-family="NotoSans, 'Helvetica Neue', Roboto, Helvetica, Arial, sans-serif" font-size="12" font-weight="bold" lengthAdjust="spacingAndGlyphs" style="fill:#4F4F4F;"><tspan y="76" x="384" text-anchor="middle" textLength="117">object-based image</tspan><tspan y="94" x="384" text-anchor="middle" textLength="91">analysis (OBIA)</tspan></text></g><g transform="translate(-869,-95)"><rect x="0" y="0" width="158" height="66" border="1" rx="10" ry="10" style="fill:#E0E0E0;stroke:#707070;stroke-width:1px;"/><text font-family="NotoSans, 'Helvetica Neue', Roboto, Helvetica, Arial, sans-serif" font-size="12" font-weight="bold" lengthAdjust="spacingAndGlyphs" style="fill:#4F4F4F;"><tspan y="18" x="79" text-anchor="middle" textLength="98">Multi-resolution</tspan><tspan y="36" x="79" text-anchor="middle" textLength="99">segmentation in</tspan><tspan y="54" x="79" text-anchor="middle" textLength="66">eCognition</tspan></text></g><g transform="translate(-869,-9)"><rect x="0" y="0" width="158" height="48" border="1" rx="10" ry="10" style="fill:#E0E0E0;stroke:#707070;stroke-width:1px;"/><text font-family="NotoSans, 'Helvetica Neue', Roboto, Helvetica, Arial, sans-serif" font-size="12" font-weight="bold" lengthAdjust="spacingAndGlyphs" style="fill:#4F4F4F;"><tspan y="18" x="79" text-anchor="middle" textLength="146">The segment mean shift</tspan><tspan y="36" x="79" text-anchor="middle" textLength="82">tool in ArcGIS</tspan></text></g><g transform="translate(-386,74)"><rect x="0" y="0" width="158" height="84" border="1" rx="10" ry="10" style="fill:#E0E0E0;stroke:#707070;stroke-width:1px;"/><text font-family="NotoSans, 'Helvetica Neue', Roboto, Helvetica, Arial, sans-serif" font-size="12" font-weight="bold" lengthAdjust="spacingAndGlyphs" style="fill:#4F4F4F;"><tspan y="18" x="79" text-anchor="middle" textLength="107">Sub-pixel analysis</tspan><tspan y="36" x="79" text-anchor="middle" textLength="126">(a.k.a., SMA (Spectral</tspan><tspan y="54" x="79" text-anchor="middle" textLength="121">maximum analysis),</tspan><tspan y="72" x="79" text-anchor="middle" textLength="55">SPC, LSU)</tspan></text></g><g transform="translate(-564,92)"><rect x="0" y="0" width="158" height="48" border="1" rx="10" ry="10" style="fill:#E0E0E0;stroke:#707070;stroke-width:1px;"/><text font-family="NotoSans, 'Helvetica Neue', Roboto, Helvetica, Arial, sans-serif" font-size="12" font-weight="bold" lengthAdjust="spacingAndGlyphs" style="fill:#4F4F4F;"><tspan y="18" x="79" text-anchor="middle" textLength="144">Mixed pixel: Pixel purity</tspan><tspan y="36" x="79" text-anchor="middle" textLength="51">problem</tspan></text></g><g transform="translate(70.00003814697266,-502.99996185302734)"><rect x="0" y="0" width="41" height="30" border="1" rx="10" ry="10" style="fill:#E0E0E0;stroke:#707070;stroke-width:1px;"/><text font-family="NotoSans, 'Helvetica Neue', Roboto, Helvetica, Arial, sans-serif" font-size="12" font-weight="bold" lengthAdjust="spacingAndGlyphs" style="fill:#4F4F4F;"><tspan y="18" x="21" text-anchor="middle" textLength="29">Data</tspan></text></g><g transform="translate(131.00003814697266,-545.9999618530273)"><rect x="0" y="0" width="158" height="48" border="1" rx="10" ry="10" style="fill:#E0E0E0;stroke:#707070;stroke-width:1px;"/><text font-family="NotoSans, 'Helvetica Neue', Roboto, Helvetica, Arial, sans-serif" font-size="12" font-weight="bold" lengthAdjust="spacingAndGlyphs" style="fill:#4F4F4F;"><tspan y="18" x="79" text-anchor="middle" textLength="123">Satellite Reflectance</tspan><tspan y="36" x="79" text-anchor="middle" textLength="23">(SR)</tspan></text></g><g transform="translate(131.00003814697266,-477.99996185302734)"><rect x="0" y="0" width="158" height="48" border="1" rx="10" ry="10" style="fill:#E0E0E0;stroke:#707070;stroke-width:1px;"/><text font-family="NotoSans, 'Helvetica Neue', Roboto, Helvetica, Arial, sans-serif" font-size="12" font-weight="bold" lengthAdjust="spacingAndGlyphs" style="fill:#4F4F4F;"><tspan y="18" x="79" text-anchor="middle" textLength="114">Top of Atmosphere</tspan><tspan y="36" x="79" text-anchor="middle" textLength="33">(TOA)</tspan></text></g><g transform="translate(58.000038146972656,-143.99996185302734)"><rect x="0" y="0" width="67" height="30" border="1" rx="10" ry="10" style="fill:#E0E0E0;stroke:#707070;stroke-width:1px;"/><text font-family="NotoSans, 'Helvetica Neue', Roboto, Helvetica, Arial, sans-serif" font-size="12" font-weight="bold" lengthAdjust="spacingAndGlyphs" style="fill:#4F4F4F;"><tspan y="18" x="34" text-anchor="middle" textLength="55">Accuracy</tspan></text></g><g transform="translate(145.00003814697266,-414.9895782470703)"><rect x="0" y="0" width="158" height="48" border="1" rx="10" ry="10" style="fill:#E0E0E0;stroke:#707070;stroke-width:1px;"/><text font-family="NotoSans, 'Helvetica Neue', Roboto, Helvetica, Arial, sans-serif" font-size="12" font-weight="bold" lengthAdjust="spacingAndGlyphs" style="fill:#4F4F4F;"><tspan y="18" x="79" text-anchor="middle" textLength="111">Producer accuracy</tspan><tspan y="36" x="79" text-anchor="middle" textLength="44">(Recall)</tspan></text></g><g transform="translate(147.00005340576172,-330.9583396911621)"><rect x="0" y="0" width="158" height="48" border="1" rx="10" ry="10" style="fill:#E0E0E0;stroke:#707070;stroke-width:1px;"/><text font-family="NotoSans, 'Helvetica Neue', Roboto, Helvetica, Arial, sans-serif" font-size="12" font-weight="bold" lengthAdjust="spacingAndGlyphs" style="fill:#4F4F4F;"><tspan y="18" x="79" text-anchor="middle" textLength="93">User&#x27;s accuracy</tspan><tspan y="36" x="79" text-anchor="middle" textLength="63">(Precision)</tspan></text></g><g transform="translate(152.00003814697266,-233.99998474121094)"><rect x="0" y="0" width="112" height="30" border="1" rx="10" ry="10" style="fill:#E0E0E0;stroke:#707070;stroke-width:1px;"/><text font-family="NotoSans, 'Helvetica Neue', Roboto, Helvetica, Arial, sans-serif" font-size="12" font-weight="bold" lengthAdjust="spacingAndGlyphs" style="fill:#4F4F4F;"><tspan y="18" x="56" text-anchor="middle" textLength="100">Overall accuracy</tspan></text></g><g transform="translate(154.00003814697266,-165.99998474121094)"><rect x="0" y="0" width="117" height="30" border="1" rx="10" ry="10" style="fill:#E0E0E0;stroke:#707070;stroke-width:1px;"/><text font-family="NotoSans, 'Helvetica Neue', Roboto, Helvetica, Arial, sans-serif" font-size="12" font-weight="bold" lengthAdjust="spacingAndGlyphs" style="fill:#4F4F4F;"><tspan y="18" x="59" text-anchor="middle" textLength="105">Kappa coefficient</tspan></text></g><g transform="translate(291.00003814697266,-183.99998474121094)"><rect x="0" y="0" width="158" height="66" border="1" rx="10" ry="10" style="fill:#E0E0E0;stroke:#707070;stroke-width:1px;"/><text font-family="NotoSans, 'Helvetica Neue', Roboto, Helvetica, Arial, sans-serif" font-size="12" font-weight="bold" lengthAdjust="spacingAndGlyphs" style="fill:#4F4F4F;"><tspan y="18" x="79" text-anchor="middle" textLength="134">Problematic: Different</tspan><tspan y="36" x="79" text-anchor="middle" textLength="133">interpretations of this</tspan><tspan y="54" x="79" text-anchor="middle" textLength="43">metric,</tspan></text></g><g transform="translate(156.00005340576172,-47.99998474121094)"><rect x="0" y="0" width="62" height="30" border="1" rx="10" ry="10" style="fill:#E0E0E0;stroke:#707070;stroke-width:1px;"/><text font-family="NotoSans, 'Helvetica Neue', Roboto, Helvetica, Arial, sans-serif" font-size="12" font-weight="bold" lengthAdjust="spacingAndGlyphs" style="fill:#4F4F4F;"><tspan y="18" x="31" text-anchor="middle" textLength="50">F1 Score</tspan></text></g><g transform="translate(250.00005340576172,-83.99999618530273)"><rect x="0" y="0" width="158" height="48" border="1" rx="10" ry="10" style="fill:#E0E0E0;stroke:#707070;stroke-width:1px;"/><text font-family="NotoSans, 'Helvetica Neue', Roboto, Helvetica, Arial, sans-serif" font-size="12" font-weight="bold" lengthAdjust="spacingAndGlyphs" style="fill:#4F4F4F;"><tspan y="18" x="79" text-anchor="middle" textLength="89">Issue 1: TN not</tspan><tspan y="36" x="79" text-anchor="middle" textLength="66">considered</tspan></text></g><g transform="translate(253.00005340576172,-29.999996185302734)"><rect x="0" y="0" width="158" height="66" border="1" rx="10" ry="10" style="fill:#E0E0E0;stroke:#707070;stroke-width:1px;"/><text font-family="NotoSans, 'Helvetica Neue', Roboto, Helvetica, Arial, sans-serif" font-size="12" font-weight="bold" lengthAdjust="spacingAndGlyphs" style="fill:#4F4F4F;"><tspan y="18" x="79" text-anchor="middle" textLength="110">Issue 2: Recall and</tspan><tspan y="36" x="79" text-anchor="middle" textLength="102">precision are not</tspan><tspan y="54" x="79" text-anchor="middle" textLength="109">equally important</tspan></text></g><g transform="translate(145.00003814697266,122.00001525878906)"><rect x="0" y="0" width="158" height="66" border="1" rx="10" ry="10" style="fill:#E0E0E0;stroke:#707070;stroke-width:1px;"/><text font-family="NotoSans, 'Helvetica Neue', Roboto, Helvetica, Arial, sans-serif" font-size="12" font-weight="bold" lengthAdjust="spacingAndGlyphs" style="fill:#4F4F4F;"><tspan y="18" x="79" text-anchor="middle" textLength="116">Receiver Operating</tspan><tspan y="36" x="79" text-anchor="middle" textLength="122">Characteristic Curve</tspan><tspan y="54" x="79" text-anchor="middle" textLength="41">(ROCC)</tspan></text></g><g transform="translate(323.00003814697266,79.00001525878906)"><rect x="0" y="0" width="158" height="48" border="1" rx="10" ry="10" style="fill:#E0E0E0;stroke:#707070;stroke-width:1px;"/><text font-family="NotoSans, 'Helvetica Neue', Roboto, Helvetica, Arial, sans-serif" font-size="12" font-weight="bold" lengthAdjust="spacingAndGlyphs" style="fill:#4F4F4F;"><tspan y="18" x="79" text-anchor="middle" textLength="142">Consider TP rate and FP</tspan><tspan y="36" x="79" text-anchor="middle" textLength="104">rate, both &quot;good&quot;</tspan></text></g><g transform="translate(323.00003814697266,173.00005340576172)"><rect x="0" y="0" width="158" height="84" border="1" rx="10" ry="10" style="fill:#E0E0E0;stroke:#707070;stroke-width:1px;"/><text font-family="NotoSans, 'Helvetica Neue', Roboto, Helvetica, Arial, sans-serif" font-size="12" font-weight="bold" lengthAdjust="spacingAndGlyphs" style="fill:#4F4F4F;"><tspan y="18" x="79" text-anchor="middle" textLength="111">Maximise the area</tspan><tspan y="36" x="79" text-anchor="middle" textLength="132">under the curve (AUC)</tspan><tspan y="54" x="79" text-anchor="middle" textLength="129">in a TP rate vs FP rate</tspan><tspan y="72" x="79" text-anchor="middle" textLength="28">plot.</tspan></text></g><g transform="translate(-695,212)"><rect x="0" y="0" width="158" height="66" border="1" rx="10" ry="10" style="fill:#C0C0C0;stroke:#707070;stroke-width:1px;"/><text font-family="NotoSans, 'Helvetica Neue', Roboto, Helvetica, Arial, sans-serif" font-size="12" font-weight="bold" lengthAdjust="spacingAndGlyphs" style="fill:#4F4F4F;"><tspan y="18" x="79" text-anchor="middle" textLength="135">End Members: (nearly)</tspan><tspan y="36" x="79" text-anchor="middle" textLength="126">pure component of a</tspan><tspan y="54" x="79" text-anchor="middle" textLength="29">pixel</tspan></text></g></g></svg>